<svg xmlns="http://www.w3.org/2000/svg" viewBox="0 0 1187.7 629.45"><defs><style>.cls-1{fill:#94c11f;}.cls-2{fill:#b6cf4d;}.cls-3{fill:#009432;}</style></defs><g id="Laag_2" data-name="Laag 2"><g id="Laag_1-2" data-name="Laag 1"><path class="cls-1" d="M1.55,316.52c1,6.41,2.22,12.81,3.2,17.57S6.36,342,6.36,342s.61,3.16,1.53,7.9c.85,4.54,1.8,10.52,2.4,16.51.09,4.67.26,9.14.45,12.95,0,1-.08,1.95-.14,2.86H52.09l0-.18c1.22-4.57,2.85-10.69,4.3-16.85s2.71-12.37,3.51-17,1.21-7.76,1.21-7.76.1-.78.29-2.14.44-3.3.68-5.63c.57-4.66,1-10.88,1.45-17.08s.56-12.4.65-17,.12-7.74.12-7.74-.61,3.06-1.51,7.65-2.25,10.7-3.7,16.77-3.09,12.12-4.47,16.62C54,334.08,53.43,336,53,337.26l-.66,2.05s-1,3-2.55,7.42c-.76,2.11-1.68,4.55-2.7,7.15,1.07-7,2-13.85,2.73-19.15.73-6.07,1.22-10.12,1.22-10.12l1-10.13c.54-6.08,1.08-14.2,1.29-22.32s0-16.23-.5-22.3c-.13-3-.51-5.56-.65-7.32s-.28-2.77-.28-2.77l-.11,2.78c-.1,1.76-.07,4.29-.35,7.31-.36,6.05-1.33,14.08-2.57,22.08s-3,15.95-4.32,21.9-2.37,9.91-2.37,9.91-1,3.95-2.59,9.88c-.7,2.61-1.54,5.62-2.45,8.83.51-4.84,1.11-9.4,1.59-13.22l1.4-11s.14-1.11.37-3,.54-4.71.88-8c.73-6.65,1.27-15.56,1.52-24.44,0-4.45,0-8.89-.15-13.05s-.35-8-.67-11.36c-.67-6.62-1.12-11-1.12-11s-.11,4.42-.27,11.06c-.11,3.31-.5,7.17-.77,11.3s-1,8.51-1.48,12.9c-1.36,8.75-3,17.46-4.55,24-.75,3.26-1.37,6-1.87,7.86l-.74,3L28.5,328.17c-1.66,6.54-4,15.26-5.6,24.25-.08.43-.14.85-.21,1.28-1.7-12.3-2.6-23.12-2.6-23.12S18.8,315.81,18.61,301s.58-29.74.58-29.74-3.07,14.72-5.05,29.59c-1.91,13.87-2.86,27.81-3,29.62C9.55,326.19,7.68,321.1,6,316a144.66,144.66,0,0,1-4.52-17.22c-.54-2.37-.66-4.36-.9-5.76s-.3-2.19-.3-2.19,0,.8-.09,2.2-.23,3.42-.1,5.83A137.73,137.73,0,0,0,1.55,316.52Z"/><path class="cls-2" d="M620.49,160l-1,3.56c-.41,1.36-1,2.89-1.52,4.56a134.32,134.32,0,0,1-10.86,23.59,142.5,142.5,0,0,1-15.38,21.56c-4.77,5.54-8.32,9-8.32,9L581,224.64c-1.49,1.54-3.88,3.57-6.65,6a175,175,0,0,1-17.24,12.89c2.61-4.22,4.93-8.22,6.74-11.63,1.65-3,2.9-5.63,3.82-7.41s1.36-2.84,1.36-2.84,2-4.11,4.61-10.4A220,220,0,0,0,581.71,188a195.31,195.31,0,0,0,5.13-23.76c.54-3.25.83-6,1-7.88s.34-3,.34-3l-.74,2.94c-.46,1.87-1.11,4.54-2.08,7.72a199.85,199.85,0,0,1-8.15,22.91,224.64,224.64,0,0,1-10.86,22c-3.32,5.86-5.79,9.64-5.79,9.64l-1.67,2.61c-1.12,1.63-2.64,4-4.62,6.77a231,231,0,0,1-15.57,19.65c-1.1,1.26-2.23,2.51-3.37,3.73.38-1,.78-2.08,1.2-3.13,3.09-7.7,7-15.5,9.64-21.49,1.35-3,2.44-5.52,3.16-7.31s1.11-2.82,1.11-2.82l1-2.83c.63-1.82,1.53-4.4,2.43-7.53a177.67,177.67,0,0,0,5-23.06c1.28-8.4,2.08-16.8,2.62-23.1l.85-10.5s-.91,4.14-2.29,10.34-3.34,14.45-5.73,22.57a180.68,180.68,0,0,1-7.9,21.88c-1.27,2.91-2.47,5.28-3.29,6.94s-1.36,2.58-1.36,2.58-.49.94-1.43,2.56-2.28,3.94-4,6.72c-2.11,3.46-4.83,7.63-7.64,12.2.49-3,1.05-5.78,1.62-8.23.72-3.14,1.45-5.75,2-7.57s.87-2.88.87-2.88,1.28-4.17,3.45-10.49,5.19-14.82,7.22-23.57a85.89,85.89,0,0,0,2-13c0-2.1.2-4.11,0-6-.06-1-.12-1.88-.17-2.78s-.27-1.75-.4-2.58a30.2,30.2,0,0,0-1-4.45c-.17-.66-.34-1.27-.49-1.84s-.4-1.06-.58-1.52c-.7-1.83-1.11-2.88-1.11-2.88s.27,1.08.73,3c.11.46.23,1,.37,1.54s.15,1.2.24,1.86a29.23,29.23,0,0,1,.37,4.43c0,.81,0,1.66,0,2.53s-.13,1.78-.19,2.71a57.47,57.47,0,0,1-.78,5.79,83.66,83.66,0,0,1-3.57,12.31c-3.07,8.26-7.15,16.28-10.11,22.39s-4.89,10.29-4.89,10.29l-.15.33-1.46-8.6s-.79-4.72-2-11.79-2.89-16.52-4.24-25.9-1.69-18.82-.59-25.86a56,56,0,0,1,1.9-8.42c.7-2,1.09-3.14,1.09-3.14l-1.47,3a57.39,57.39,0,0,0-3,8.32c-2,7-2.85,16.71-2.61,26.3s.8,19.09,1.08,26.23l.55,11.9,1.52,32.86c-5.05-11-10.38-21.43-13.65-29.46-1.71-4.08-2.94-7.52-3.7-9.94s-1.2-3.81-1.2-3.81-.38-1.4-1.06-3.85c-.36-1.22-.62-2.73-1-4.45s-.77-3.68-1.1-5.83a117.24,117.24,0,0,1-.89-31.77A123.11,123.11,0,0,1,500,119c.74-2.12,1.64-4,2.35-5.69s1.41-3.14,2-4.33c1.19-2.38,1.86-3.75,1.86-3.75L504,108.86c-.72,1.14-1.57,2.54-2.44,4.19s-2,3.48-2.92,5.55A128,128,0,0,0,487.86,150a125.29,125.29,0,0,0-2.34,17.46,122.73,122.73,0,0,0,0,15.4c.12,2.26.29,4.33.54,6.16s.36,3.43.62,4.74c.45,2.62.71,4.11.71,4.11s.23,1.51.86,4.11,1.5,6.32,2.86,10.7c2.64,8.77,7.16,20.1,11,31.23,1.26,3.58,2.37,7.14,3.32,10.6-2.55-3.51-5.18-7.22-7.76-11-5.82-8.43-11.36-17-15.37-23.5S476,209.18,476,209.18l-1.6-3c-1-1.93-2.37-4.69-3.79-8.06A68,68,0,0,1,465,172.5c-.23-9.62,1.52-19.33,3-26.55s2.73-12,2.73-12-1.74,4.68-4.14,11.77-5.29,16.69-6.24,26.68a66.38,66.38,0,0,0,.11,14.79,80.66,80.66,0,0,0,2.65,12.76c1.06,3.68,2.18,6.69,3,8.79L467.4,212s1.91,4.77,5.21,11.69,7.85,16,12.75,25.06,10.08,18,14.11,24.61c2.38,3.91,4.31,7,5.52,8.9h33.32a58.48,58.48,0,0,1,7.62-6.93,138.72,138.72,0,0,1,12.89-8.25l6.35-3.59,6.47-3.63c3.87-2.21,9-5.27,13.86-8.72s9.06-7.44,11.54-10.79l1-1.15.71-1.12c.43-.7.81-1.32,1.13-1.82l1-1.57-1.31,1.4-1.5,1.59-.91,1-1.18,1c-3.08,2.82-8,5.84-13.13,8.43s-10.75,4.63-15,6.17l-7.07,2.54-2.66,1c.88-.64,1.77-1.29,2.65-2a173,173,0,0,0,21.72-19.24c2.6-2.87,4.83-5.2,6.19-6.95l2.23-2.7s3.26-3.93,7.49-10.1a140.09,140.09,0,0,0,13-23.53,131.84,131.84,0,0,0,8-24.81c.35-1.73.71-3.29,1-4.7s.39-2.63.53-3.64l.47-3.16Z"/><path class="cls-1" d="M1008.73,248.31c.82,2.29,1.3,3.6,1.3,3.6s1.77,5.26,4.1,13.18a233.52,233.52,0,0,1,6.33,29.26c.89,6.88,1.44,13.74,1.63,19.89h94.38c0-.78.07-1.59.13-2.45.33-7.63,1.13-17.8,2.23-28s2.69-20.31,4.07-27.9c.63-3.81,1.33-7,1.74-9.17s.68-3.48.68-3.48.28-1.26.76-3.47,1.12-5.37,2.07-9.13c1.77-7.56,4.46-17.59,7.46-27.58s6.49-19.89,9.29-27.28c1.33-3.71,2.62-6.75,3.45-8.91s1.33-3.38,1.33-3.38-.62,1.19-1.69,3.28-2.65,5-4.38,8.66c-3.57,7.19-8,16.88-12.18,26.67s-7.84,19.71-10.43,27.2c-1,2.62-1.69,4.93-2.32,6.84.76-5.24,1.72-11.17,2.8-17.11,1.63-8.58,3.49-17.15,5.08-23.55.74-3.21,1.5-5.86,2-7.73l.76-2.93-1.12,2.85c-.7,1.83-1.79,4.41-2.93,7.55-2.39,6.26-5.32,14.66-8,23.13s-5,17-6.67,23.46c-.86,3.21-1.44,5.91-1.91,7.79l-.71,3s-.23,1.08-.65,3-1,4.58-1.66,7.83c-1.33,6.5-2.86,15.2-4.15,23.93q-.39,2.83-.75,5.63c-.11-1.79-.21-3.61-.3-5.43-.28-7.45-.35-14.92-.22-20.52,0-2.8.16-5.14.2-6.77s.1-2.58.1-2.58,0-.93.15-2.56.19-4,.44-6.78c.41-5.61,1.2-13.09,2.2-20.56s2.36-14.93,3.52-20.5c.53-2.8,1.1-5.11,1.44-6.74s.56-2.55.56-2.55l-.93,2.48c-.57,1.59-1.47,3.84-2.4,6.57-2,5.45-4.32,12.77-6.48,20.16s-4,14.83-5.2,20.44c-.66,2.81-1.08,5.16-1.43,6.8s-.53,2.58-.53,2.58l-.47,2.59c-.28,1.64-.77,4-1.2,6.83s-1,6-1.42,9.44c.42-7.47.93-14.64,1.46-20.3.7-7.08,1.16-11.81,1.16-11.81l1.45-11.8c.91-7.08,2.35-16.51,4-25.92s3.63-18.8,5.23-25.83l2.75-11.7L1100.72,180c-2.41,6.89-5.39,16.13-8.18,25.42s-5.26,18.65-7,25.69-2.81,11.75-2.81,11.75l-1.15,5.35c-.06-3,0-5.57,0-7.48,0-2.48.06-3.89.06-3.89s.05-1.42.15-3.89c0-1.24.13-2.75.25-4.47s.24-3.67.45-5.78c.36-4.25,1-9.18,1.88-14.45s2.13-10.87,3.61-16.43,3.37-11.05,5.36-16.15a147.31,147.31,0,0,1,6.26-13.73c1-2,2-3.78,2.93-5.36s1.7-3,2.42-4.08l2.23-3.52-2.55,3.38c-.84,1.06-1.77,2.39-2.82,3.93s-2.26,3.26-3.45,5.2c-2.49,3.83-5,8.44-7.61,13.44s-4.87,10.49-7,16-3.81,11.16-5.26,16.47c-1.09,4.2-2,8.18-2.77,11.8.25-8.93.79-20.26,1.81-31.6a255.49,255.49,0,0,1,5.48-33.42c.26-1.13.51-2.22.74-3.25s.58-2,.85-2.9c.53-1.83,1-3.42,1.38-4.73l1.2-4.12-1.56,4-1.8,4.65c-.34.9-.71,1.85-1.1,2.86s-.68,2.09-1,3.21a260.82,260.82,0,0,0-8.48,33.26c-2.2,12.24-3.84,24.53-4.87,33.74s-1.68,15.36-1.68,15.36-.64,6.12-1.61,15.31-2.43,21.38-4.32,33.46c-.6,3.55-1.25,7.07-1.93,10.52.09-4.08.16-8.28.22-12.48.36-24.06,0-48.1,0-48.1s-.3-24-1.32-48.05-2.65-48-2.65-48-.5,24-1.7,48-3,47.88-3,47.88-1.83,23.93-4.35,47.78c-.29,2.72-.58,5.44-.88,8.12-.08-1.82-.17-3.65-.27-5.48-.71-11-1.71-22-2.71-30.16-.44-4.11-1-7.51-1.28-9.9s-.5-3.76-.5-3.76l-.58-3.74c-.4-2.38-.85-5.79-1.6-9.86-1.38-8.15-3.54-19-6-29.75s-5.39-21.46-7.76-29.43c-1.12-4-2.23-7.3-2.92-9.62s-1.14-3.65-1.14-3.65l.77,3.71c.46,2.36,1.24,5.71,2,9.76,1.57,8.09,3.32,18.9,4.78,29.73s2.44,21.68,3,29.82c.34,4.06.45,7.46.61,9.83s.2,3.73.2,3.73,0,1.36.13,3.73.26,5.77.28,9.84c.19,8.13.09,19-.29,29.8l-.06,1.31a246.56,246.56,0,0,0-7.89-23.63c-3.18-8-5.52-13.18-5.52-13.18l-1.68-3.57c-1.1-2.26-2.51-5.54-4.53-9.37-3.82-7.73-9.45-17.82-15.37-27.79s-12.31-19.71-17.2-27L971.35,170l7,12.56c4.14,7.55,9.45,17.68,14.43,27.89s9.45,20.56,12.45,28.38C1006.81,242.73,1007.87,246,1008.73,248.31Z"/><path class="cls-2" d="M340.86,112c4.7,25.45,10.19,60,15,95,4.58,35.13,8.47,70.57,10.79,97.4,1.31,13.33,2,24.64,2.66,32.45s.95,12.31.95,12.31l.77,12.39c.43,7.9,1.32,19.07,1.89,32.64,1.44,27,2.56,63.22,3,99.33.07,14.07,0,28.11-.08,41.61-.36-1.75-.71-3.45-1.05-5-1.12-5.58-2.22-10.07-2.91-13.28s-1.12-5-1.12-5-.44-1.79-1.2-4.91-1.8-7.63-3.21-12.84c-2.7-10.54-6.59-24.15-10.72-37.24s-8.66-25.44-12.19-34.36c-1.71-4.56-3.28-8.08-4.31-10.65l-1.64-4s.45,1.7,1.25,4.67,2,7.13,3.21,12.35c2.61,10.26,5.77,24.31,8.62,38.54s5.22,28.84,6.82,39.88c.86,5.45,1.4,10.15,1.86,13.35s.68,5.06.68,5.06.22,1.86.61,5.12,1,7.84,1.53,13.48c1.21,11.16,2.49,26.18,3.47,41.17.82,14,1.37,27.86,1.58,38.78h39.28c-.25-2.51-.52-5.38-.69-8.63-.9-11.64-1.44-27.49-1.43-43.62.19-16.06.94-32.32,2-44.39.4-6.11,1.06-11,1.37-14.57s.57-5.54.57-5.54.26-2,.71-5.44,1-8.55,2-14.36c1.74-11.86,4.67-27.24,8.16-42.23,3.64-14.73,7.85-29,11.44-39,1.7-5.21,3.39-9,4.46-11.92s1.74-4.48,1.74-4.48l-2.08,3.65c-1.29,2.42-3.32,5.47-5.44,9.91a316.22,316.22,0,0,0-15,34.49c-4.9,13.79-9.36,28.61-12.28,40.36-1.58,5.75-2.57,10.89-3.42,14.36l-1.26,5.52s-.41,2.06-1.12,5.67c-.13.72-.29,1.53-.45,2.36,0-1.82.08-3.62.12-5.33.42-16.71.82-27.87.82-27.87s.4-11.14,1.18-27.85,2.1-39,3.69-61.18,3.62-44.32,5.31-60.83,2.91-27.51,2.91-27.51-1.93,10.45-4.65,26.31-6.12,37.26-9.24,58.93c-2.43,17.35-4.69,34.81-6.46,49.62-1-13.55-2.06-26.21-3.1-37.27-1.13-13.75-2.5-25-3.26-33s-1.29-12.47-1.29-12.47-.53-4.5-1.47-12.37-2.15-19.18-4-32.49c-3.45-26.8-8.82-61.95-14.84-96.4-6.24-34.3-13.12-67.85-18.83-92.35-2.71-12.41-5.36-22.3-7-29.41s-2.71-11.08-2.71-11.08L335,81.41C336.42,88.85,338.66,99.17,340.86,112Z"/><path class="cls-3" d="M383.2,310V620h113V594c0-27.5.4-29.7,4.3-23.1,3.4,5.8,17.2,19.4,27.6,27.2,18.7,14,44.4,25.4,67.3,29.6,12.7,2.4,42,2.3,57.8-.1,59.6-9.2,105.5-39.5,134.3-88.6,12.6-21.7,20.9-45.4,25.9-74.5,3-17.6,3.3-59.6.5-77.5-13.4-85.9-62.1-148.4-131.2-168.5-17.4-5-25.2-6-50-6-23.4,0-31.2.7-48.5,4.6-29.6,6.7-53.4,20.2-70.6,40.1-3.2,3.8-6.1,6.8-6.6,6.8s-.8-59.4-.8-132V0h-123Zm239.9,13c34.7,9.1,57.7,32.2,66.8,67,3.1,11.9,4.3,36.5,2.3,49.9-5.3,36.7-27.8,65.1-60.1,76-12.7,4.3-21.7,5.6-38.4,5.5-22.9-.1-39.5-4.7-55.8-15.3-29.1-19-44.7-56.1-40.8-96.5,2.6-26.4,10.9-46,26.1-61.6,14.4-14.7,29.1-22.3,51.4-26.6C585.5,319.3,612.4,320.2,623.1,323Z"/><path class="cls-3" d="M141.7,257.1c-40.5,5.2-76.6,25.9-100.5,57.7C2.4,366.4-3.7,444.2,26.2,504.5c20.6,41.4,56.3,69.3,101.6,79.4,37.3,8.3,80.4,2.8,111.9-14.4,39.6-21.5,67.4-60.6,77-107.9a194.48,194.48,0,0,0-2.5-90.1c-16.5-62.7-63.4-105.1-126-114C176.8,255.9,153,255.7,141.7,257.1Zm39.7,92.3c16.9,3.3,26.9,8.5,38.4,20,9.2,9.2,14,17.7,17.5,31.1,3,11.3,3,31.7,0,42.8-6.8,25.5-24.5,42.9-50.6,49.8-11.5,3.1-33.6,3.1-45,.1-26.4-7.1-44.9-25.4-51.2-50.7-2.7-10.8-2.4-32.6.5-42.8,9.4-32.8,35.4-51.4,72.4-51.6A106.13,106.13,0,0,1,181.4,349.4Z"/><path class="cls-3" d="M997,283.1c-70.6,5.4-106.7,33-118.3,90.2-9.2,45.9-2.8,98.3,17,137.9,6,12.1,15.8,26.8,22.5,34l4.5,4.8,25-24.4,25-24.3-7.2-7.7c-18.1-19.3-26.9-39.4-28-63.6-.6-12.9,1.2-22.9,6.1-33.2,7.8-16.4,24-28.1,40.9-29.5l6.7-.6.1,22.4c0,12.3.2,23.3.4,24.4s.6,7.1.9,13.3,1.5,17.7,2.6,25.5c8.9,66.9,33.1,103.2,75.8,114,12.4,3.1,37,3,48.7-.1,34.6-9.3,57.5-36.5,66.2-78.2,2.4-11.7,2.4-39,0-51.5-5.1-26.2-17.5-49.2-33.2-61.5-3.1-2.5-6.7-5.3-7.9-6.2-2-1.7-1.2-1.7,16.7-1.8h18.7V282l-86.2.1C1046.5,282.2,1002.9,282.7,997,283.1Zm84.9,84.9c11.7,2.7,25.4,13.1,32.2,24.4,7.1,11.9,11.1,27.4,11.1,43.5,0,15-3.8,26.5-11.7,35.2-13.3,14.7-36,11.9-48.5-6-10.2-14.5-14.3-34.6-15.5-75.3l-.6-22.8h14.4C1071.2,367,1079.6,367.5,1081.9,368Z"/></g></g></svg>